<svg width="184" height="167" viewBox="0 0 184 167" fill="none" xmlns="http://www.w3.org/2000/svg">
<path d="M39.1326 153.854C36.6573 153.918 34.1846 153.682 31.7146 153.148C29.2446 152.614 27.1636 151.529 25.4714 149.892C25.5758 147.76 25.5613 144.602 25.428 140.419C25.3799 136.238 25.2081 131.585 24.9125 126.462C24.6176 121.254 24.1098 116.001 23.3891 110.704C22.7536 105.408 21.8584 100.535 20.7034 96.0875C19.6345 91.5551 18.3015 87.9164 16.7046 85.1714C15.1077 82.4264 13.2 81.044 10.9814 81.0242C9.01884 81.0066 6.79074 82.0535 4.29714 84.1646L3.40803 83.3887C5.86276 76.0716 9.02718 70.5103 12.9013 66.7047C16.8607 62.8999 20.931 61.0161 25.1122 61.0535C28.7814 61.0862 31.8419 62.3936 34.2936 64.9756C36.7453 67.5575 38.677 71.0309 40.0888 75.3957C41.5867 79.6759 42.6103 84.5066 43.1596 89.8877C43.795 95.1842 44.088 100.606 44.0385 106.152C43.9989 110.589 43.7894 114.94 43.41 119.203C43.0306 123.467 42.5263 127.388 41.897 130.966C46.4705 125.289 50.3233 119.094 53.4553 112.38C56.5881 105.581 58.9948 98.8613 60.6755 92.2201C62.3569 85.4935 63.2216 79.4423 63.2696 74.0665C63.2787 73.0425 63.2452 72.0182 63.169 70.9935C63.0936 69.8834 62.9744 68.901 62.8113 68.0462C64.6238 65.7583 66.9433 64.0295 69.7699 62.8601C72.5972 61.6052 75.4188 60.9904 78.2347 61.0155C80.9652 61.0399 83.3491 61.6585 85.3864 62.8714C87.4244 63.999 88.6884 65.8023 89.1783 68.2815C87.9966 76.3779 85.7057 84.4645 82.3055 92.5411C78.9906 100.619 74.9527 108.433 70.1918 115.986C65.4316 123.453 60.3347 130.405 54.9011 136.842C49.5527 143.28 44.2966 148.951 39.1326 153.854Z" fill="white"/>
<path d="M84.216 149.256C83.064 149.256 81.9333 148.979 80.824 148.424C79.7573 147.827 78.8827 146.888 78.2 145.608C77.5173 144.328 77.176 142.685 77.176 140.68C77.176 138.888 77.4107 136.797 77.88 134.408C78.392 131.976 78.9467 129.459 79.544 126.856C80.184 124.253 80.7387 121.715 81.208 119.24C81.6773 116.765 81.8907 114.568 81.848 112.648C81.848 110.813 81.6347 109.512 81.208 108.744L81.144 108.552C81.6133 107.187 82.4453 106.12 83.64 105.352C84.8347 104.584 86.0933 104.2 87.416 104.2C88.9093 104.2 90.232 104.776 91.384 105.928C92.5787 107.037 93.176 108.915 93.176 111.56C93.176 112.968 93.0053 114.653 92.664 116.616C92.3227 118.536 91.9173 120.605 91.448 122.824C90.9787 125 90.488 127.155 89.976 129.288C89.5067 131.421 89.1013 133.384 88.76 135.176C88.4187 136.968 88.248 138.44 88.248 139.592C88.248 140.787 88.4187 141.619 88.76 142.088C89.1013 142.515 89.4853 142.728 89.912 142.728C90.3813 142.728 90.8293 142.557 91.256 142.216C91.6827 141.832 91.96 141.491 92.088 141.192L92.6 141.32C92.5573 142.856 92.1093 144.221 91.256 145.416C90.4453 146.611 89.4 147.549 88.12 148.232C86.8827 148.915 85.5813 149.256 84.216 149.256ZM106.734 114.76C105.028 114.76 103.62 114.248 102.51 113.224C101.444 112.157 100.91 110.835 100.91 109.256C100.91 107.549 101.55 106.077 102.83 104.84C104.11 103.603 105.668 102.984 107.502 102.984C109.209 102.984 110.596 103.517 111.663 104.584C112.772 105.651 113.326 106.973 113.326 108.552C113.326 110.259 112.686 111.731 111.406 112.968C110.126 114.163 108.569 114.76 106.734 114.76ZM102.254 149.256C100.59 149.256 99.0972 148.68 97.7745 147.528C96.4518 146.333 95.7905 144.435 95.7905 141.832C95.7905 140.339 95.9825 138.952 96.3665 137.672C96.7932 136.349 97.2625 135.069 97.7745 133.832C98.3292 132.595 98.7985 131.4 99.1825 130.248C99.6092 129.053 99.8225 127.88 99.8225 126.728C99.8225 125.704 99.6518 124.979 99.3105 124.552C98.9692 124.083 98.5638 123.848 98.0945 123.848C97.3692 123.848 96.6652 124.317 95.9825 125.256L95.5345 125C95.7052 123.293 96.2385 121.843 97.1345 120.648C98.0732 119.411 99.2038 118.451 100.526 117.768C101.892 117.085 103.236 116.744 104.559 116.744C106.18 116.744 107.588 117.277 108.782 118.344C109.977 119.368 110.575 121.053 110.575 123.4C110.575 124.808 110.361 126.301 109.934 127.88C109.55 129.416 109.081 130.952 108.526 132.488C108.014 134.024 107.545 135.453 107.118 136.776C106.734 138.099 106.542 139.229 106.542 140.168C106.542 140.979 106.692 141.555 106.991 141.896C107.332 142.237 107.694 142.408 108.078 142.408C108.462 142.408 108.825 142.301 109.167 142.088C109.551 141.832 109.828 141.555 109.999 141.256L110.447 141.384C110.447 142.963 110.02 144.349 109.167 145.544C108.356 146.696 107.332 147.613 106.094 148.296C104.857 148.936 103.577 149.256 102.254 149.256ZM121.535 149.192C119.957 149.192 118.527 148.573 117.247 147.336C115.967 146.056 115.327 144.285 115.327 142.024C115.327 140.915 115.477 139.656 115.775 138.248C116.074 136.84 116.394 135.411 116.735 133.96C117.119 132.509 117.461 131.144 117.759 129.864C118.058 128.584 118.207 127.539 118.207 126.728C118.207 125.875 118.037 125.213 117.695 124.744C117.354 124.232 116.906 123.976 116.351 123.976C115.626 123.976 114.837 124.403 113.983 125.256L113.599 125C113.557 124.317 113.706 123.507 114.047 122.568C114.389 121.629 114.901 120.733 115.583 119.88C116.309 118.984 117.226 118.237 118.335 117.64C119.445 117.043 120.767 116.744 122.303 116.744C124.565 116.744 126.229 117.405 127.295 118.728C128.405 120.008 128.959 121.587 128.959 123.464C128.959 124.147 128.895 124.808 128.767 125.448C129.663 124.125 130.773 122.803 132.095 121.48C133.418 120.115 134.869 118.984 136.448 118.088C138.069 117.192 139.733 116.744 141.44 116.744C143.445 116.744 144.81 117.384 145.535 118.664C146.261 119.944 146.624 121.544 146.624 123.464C146.624 125.256 146.432 127.176 146.048 129.224C145.664 131.272 145.28 133.256 144.896 135.176C144.512 137.053 144.319 138.632 144.319 139.912C144.319 141.619 144.81 142.472 145.792 142.472C146.304 142.472 146.752 142.323 147.136 142.024C147.52 141.683 147.776 141.363 147.903 141.064L148.352 141.256C148.352 142.835 147.904 144.221 147.007 145.416C146.154 146.611 145.066 147.549 143.743 148.232C142.421 148.872 141.077 149.192 139.712 149.192C138.047 149.192 136.575 148.616 135.295 147.464C134.015 146.312 133.375 144.435 133.375 141.832C133.375 140.296 133.567 138.632 133.951 136.84C134.378 135.048 134.783 133.32 135.167 131.656C135.551 129.992 135.743 128.627 135.743 127.56C135.743 126.92 135.615 126.429 135.359 126.088C135.146 125.704 134.741 125.512 134.143 125.512C133.162 125.512 132.074 125.96 130.879 126.856C129.727 127.752 128.725 128.947 127.871 130.44C127.061 131.933 126.655 133.576 126.655 135.368C126.655 136.52 126.783 137.629 127.039 138.696C127.338 139.763 127.487 140.915 127.487 142.152C127.487 144.456 126.89 146.205 125.695 147.4C124.501 148.595 123.114 149.192 121.535 149.192ZM153.444 149.448C151.993 149.448 150.82 148.979 149.924 148.04C149.028 147.059 148.58 145.864 148.58 144.456C148.58 143.816 148.686 143.155 148.9 142.472C149.113 141.789 149.433 141.107 149.86 140.424C150.713 140.552 151.481 140.616 152.164 140.616C154.254 140.616 156.025 140.125 157.476 139.144C158.926 138.12 160.078 136.691 160.932 134.856C159.31 131.272 157.966 128.776 156.9 127.368C155.833 125.96 154.958 125.256 154.276 125.256C153.892 125.256 153.55 125.427 153.252 125.768C152.953 126.067 152.654 126.451 152.356 126.92L152.036 126.792C152.249 123.848 152.953 121.395 154.148 119.432C155.342 117.427 156.857 116.424 158.692 116.424C159.929 116.424 161.06 116.851 162.084 117.704C163.108 118.557 164.046 119.645 164.9 120.968C165.753 122.291 166.521 123.677 167.204 125.128C167.886 126.536 168.505 127.795 169.06 128.904C169.998 124.68 171.406 121.565 173.284 119.56C175.204 117.555 177.06 116.552 178.852 116.552C180.174 116.552 181.113 117 181.668 117.896C182.265 118.792 182.564 119.88 182.564 121.16C182.564 123.379 181.945 125.512 180.708 127.56C180.409 127.517 180.089 127.496 179.748 127.496C179.449 127.453 179.129 127.432 178.788 127.432C177.081 127.432 175.502 127.837 174.052 128.648C172.644 129.416 171.492 130.483 170.596 131.848C172.26 134.963 173.604 137.16 174.628 138.44C175.652 139.677 176.548 140.296 177.316 140.296C178.084 140.296 178.66 139.827 179.044 138.888L179.556 139.08C179.428 140.915 179.086 142.621 178.532 144.2C177.977 145.779 177.209 147.059 176.228 148.04C175.289 148.979 174.116 149.448 172.708 149.448C171.257 149.448 169.913 148.915 168.676 147.848C167.481 146.781 166.372 145.416 165.348 143.752C164.324 142.045 163.364 140.232 162.468 138.312C162.126 140.915 161.465 143.048 160.484 144.712C159.502 146.333 158.372 147.528 157.092 148.296C155.854 149.064 154.638 149.448 153.444 149.448Z" fill="white"/>
</svg>
