<svg width="21" height="20" viewBox="0 0 21 20" fill="none" xmlns="http://www.w3.org/2000/svg">
<path d="M0.962969 9.37431C1.83877 7.81588 3.1981 6.50218 4.5841 5.86814C6.75109 4.87679 7.64704 1.37536 8.26448 0.505479C9.12192 -0.701564 10.8557 0.407706 10.5689 2.20316C10.2596 4.13787 9.4176 4.6048 8.90741 5.77096C8.64787 6.36589 8.73142 6.78601 9.82943 6.86542C10.928 6.94482 13.975 7.2411 14.1249 7.84136C14.4899 9.30143 9.51064 12.8455 13.5454 15.8611C13.5454 15.8611 18.6775 16.8394 19.7133 16.9917C21.5064 17.2553 21.1835 19.6765 19.3133 19.478C17.5523 19.292 13.2455 18.396 11.92 19.2197C10.8557 19.881 6.88619 20.7657 3.36046 18.7847C-0.164671 16.8044 -0.831892 12.5682 0.962969 9.37431Z" fill="#FFCB45"/>
<path d="M8.25734 15.3254C5.79467 14.8129 6.07139 11.8376 8.41733 12.0255C10.3254 12.1777 13.6591 12.7573 14.4922 12.9457C16.197 13.3303 15.8184 16.299 13.8055 16.056C12.4983 15.8984 10.1737 15.7242 8.25734 15.3254Z" fill="#EF9645"/>
<path d="M8.50739 14.7784C6.46365 14.3074 7.03192 12.154 8.94233 12.2636C10.8533 12.3732 13.7652 12.8153 14.609 12.9504C16.5798 13.2668 15.6928 15.7982 14.241 15.5926C12.7892 15.387 10.0315 15.1292 8.50739 14.7784Z" fill="#FFCB45"/>
<path d="M7.71991 13.0173C4.79089 12.9764 4.95028 9.71026 7.14275 9.45428C9.04368 9.23207 13.2343 9.70256 14.0887 9.73752C15.6786 9.80329 15.6898 12.7092 13.8843 12.8046C12.4195 12.881 9.28426 13.0393 7.71991 13.0173Z" fill="#EF9645"/>
<path d="M7.6334 12.4615C5.81187 12.5451 5.60566 10.083 7.51074 9.90464C9.41581 9.72569 13.4891 9.76835 14.3429 9.78257C15.8291 9.80687 15.7763 12.2915 13.9513 12.3614C12.4865 12.4171 9.19598 12.3904 7.6334 12.4615Z" fill="#FFCB45"/>
<path d="M7.47457 10.4884C4.83946 10.7953 4.76658 7.43846 6.66929 7.23462C9.35654 6.94723 10.5784 7.37683 10.7704 7.33239C12.4053 6.95315 13.8315 7.00115 14.1249 7.8414C14.3755 8.55958 13.8991 9.73996 12.9563 9.86262C11.5028 10.0522 9.02826 10.307 7.47457 10.4884Z" fill="#EF9645"/>
<path d="M7.58191 9.96805C5.76453 10.115 5.30352 7.82832 7.17719 7.4402C9.05146 7.05148 11.7334 6.84171 12.8213 6.79372C14.487 6.71965 14.7815 9.1438 12.9754 9.4146C11.5254 9.63267 9.43069 9.81814 7.58191 9.96805Z" fill="#FFCB45"/>
</svg>
