<svg width="17" height="18" viewBox="0 0 17 18" fill="none" xmlns="http://www.w3.org/2000/svg">
<g clip-path="url(#clip0_1_1905)">
<path d="M10.233 6.01914L4.41195 11.8629C4.3108 11.9611 4.17561 12.016 4.03491 12.016C3.89421 12.016 3.75902 11.9611 3.65787 11.8629L0.747362 8.94101C0.662977 8.83779 0.619853 8.70675 0.626378 8.57338C0.632903 8.44001 0.68861 8.31384 0.782664 8.21942C0.876719 8.125 1.00239 8.06908 1.13525 8.06253C1.2681 8.05597 1.39863 8.09927 1.50145 8.18398L4.03491 10.734L9.47888 5.26211C9.5817 5.17739 9.71223 5.1341 9.84508 5.14065C9.97793 5.1472 10.1036 5.20313 10.1977 5.29755C10.2917 5.39197 10.3474 5.51814 10.3539 5.65151C10.3605 5.78488 10.3173 5.91592 10.233 6.01914ZM16.3186 5.26211C16.2182 5.16235 16.0827 5.10638 15.9415 5.10638C15.8003 5.10638 15.6648 5.16235 15.5645 5.26211L10.1205 10.734L8.9497 9.55859C8.84903 9.46703 8.71715 9.41783 8.58135 9.42119C8.44555 9.42454 8.31624 9.48019 8.22019 9.57662C8.12413 9.67305 8.0687 9.80287 8.06535 9.9392C8.06201 10.0755 8.11102 10.2079 8.20222 10.309L9.74347 11.8629C9.84462 11.9611 9.97981 12.016 10.1205 12.016C10.2612 12.016 10.3964 11.9611 10.4976 11.8629L16.3186 6.01914C16.4179 5.91842 16.4737 5.78239 16.4737 5.64062C16.4737 5.49886 16.4179 5.36283 16.3186 5.26211Z" fill="black"/>
</g>
<defs>
<clipPath id="clip0_1_1905">
<rect width="16.9339" height="17" fill="white" transform="translate(0.06604 0.0625)"/>
</clipPath>
</defs>
</svg>
